<?xml version="1.0" encoding="utf-8"?>
<!-- Generator: Adobe Illustrator 24.1.0, SVG Export Plug-In . SVG Version: 6.00 Build 0)  -->
<svg version="1.1"
	 id="Layer_1" xmlns:cc="http://creativecommons.org/ns#" xmlns:dc="http://purl.org/dc/elements/1.1/" xmlns:inkscape="http://www.inkscape.org/namespaces/inkscape" xmlns:rdf="http://www.w3.org/1999/02/22-rdf-syntax-ns#" xmlns:sodipodi="http://sodipodi.sourceforge.net/DTD/sodipodi-0.dtd" xmlns:svg="http://www.w3.org/2000/svg"
	 xmlns="http://www.w3.org/2000/svg" xmlns:xlink="http://www.w3.org/1999/xlink" x="0px" y="0px" viewBox="0 0 269.5 98.8"
	 style="enable-background:new 0 0 269.5 98.8;" xml:space="preserve">
<style type="text/css">
	.st0{fill:#FFCB05;}
	.st1{fill:#C7A008;}
	.st2{fill:url(#polygon16_2_);}
	.st3{fill:url(#polygon36_2_);}
	.st4{fill:#21386E;}
	.st5{fill:#1D2C5E;}
	.st6{fill:url(#path69_2_);}
	.st7{fill:url(#polygon78_2_);}
	.st8{fill:url(#polygon25_2_);}
	.st9{fill:#7D7F68;}
	.st10{fill:#3C5AA6;}
	.st11{fill:#3567B0;}
	.st12{fill:url(#path183_2_);}
	.st13{fill:url(#SVGID_1_);}
	.st14{fill:url(#SVGID_2_);}
	.st15{fill:url(#SVGID_3_);}
	.st16{fill:url(#SVGID_4_);}
	.st17{fill:url(#SVGID_5_);}
	.st18{fill:url(#SVGID_6_);}
	.st19{fill:url(#polygon16_3_);}
	.st20{fill:#0071B9;}
	.st21{fill:url(#polygon25_3_);}
	.st22{fill:url(#polygon36_3_);}
	.st23{fill:url(#polygon43_2_);}
	.st24{fill:#312370;}
	.st25{fill:url(#polygon56_2_);}
	.st26{fill:url(#path69_3_);}
	.st27{fill:url(#polygon78_3_);}
	.st28{fill:#1E2D5F;}
	.st29{fill:#3466AF;}
	.st30{fill:url(#path183_3_);}
	.st31{fill:url(#path196_1_);}
	.st32{fill:url(#SVGID_7_);}
	.st33{fill:url(#SVGID_8_);}
	.st34{fill:url(#SVGID_9_);}
	.st35{fill:url(#SVGID_10_);}
</style>
<path class="st0" d="M264.9,44.2c-0.3-1.2-0.9-2.2-1.6-3.2c-0.7-1-1.5-1.9-2.5-2.6c-0.6-0.5-2.1-1.4-4.4-2.6
	c-1.4-0.7-2.8-1.4-4.2-1.9c-1.9-0.6-3.8-1.2-6-1.8c-2.1-0.5-4.2-1-6.1-1.4c-2-0.4-4.1-0.8-6.3-1.2c0,0.3-0.1,0.7-0.1,1.3
	c1.2,1.2,2.2,2.6,3,4.1c0.8,1.6,1.3,3.3,1.5,5.2c0.1,1.1,0,2.1-0.4,3.2c-0.5,1.6-1.6,3.3-3.1,4.8L229.8,78l8.6-1.1l3.9-17.2
	c1.4-0.3,3.6-0.9,6.6-1.8c3-0.9,6.2-2.1,9.5-3.6c3.3-1.5,5.5-3.2,6.4-4.9c0.3-0.5,0.4-1,0.4-1.5C265.4,46.6,265.2,45.3,264.9,44.2z"
	/>
<path class="st0" d="M196.4,26.4c2.6,0,5,0,7.2,0s4.6,0.1,7.1,0.3c2.5,0.2,4.8,0.4,7,0.8c1.7,0.3,3.3,0.7,5,1.2
	c2.8,0.9,4.6,1.6,5.4,2c1.2,0.7,2.3,1.5,3.3,2.4s1.8,2,2.4,3.3c0.6,1.2,1,2.6,1.1,4c0.1,0.6,0,1.2-0.2,1.8c-0.7,2.1-2.8,4.4-6.2,6.8
	s-6.7,4.3-9.8,5.9c-3.1,1.5-5.5,2.6-7,3.3L210.8,78l-9.3,2.9l-0.7-42c0,0-0.3,0.1-0.7,0.4c-0.4,0.3-1,0.6-1.7,1
	c-0.7,0.4-1.2,0.7-1.3,0.7c-0.1,0-0.1-0.5-0.1-1.4c0-0.9-0.1-2.2-0.1-3.8c0-1.6-0.1-3.5-0.2-5.5S196.4,27,196.4,26.4z"/>
<polygon class="st0" points="174.1,16.5 204.4,70.2 194.5,72.4 180.2,47.8 173.8,47.5 166.6,69.4 154.3,71.5 "/>
<g>
	<path class="st1" d="M240.2,61.2l-3.6,16l1.8-0.2l3.6-16.2C241.3,60.9,240.7,61,240.2,61.2z"/>
	<path class="st1" d="M264.9,44.2c-0.3-1.2-0.9-2.2-1.6-3.2c-0.7-1-1.5-1.9-2.5-2.6c-0.6-0.5-2.1-1.4-4.4-2.6
		c-1.4-0.7-2.8-1.4-4.2-1.9c-1.9-0.6-3.8-1.2-6-1.8c-2.1-0.5-4.2-1-6.1-1.4c-2-0.4-4.1-0.8-6.3-1.2c0,0.3-0.1,0.7-0.1,1.3
		c0.2,0.2,0.4,0.4,0.5,0.6c1.3,0.2,2.6,0.5,3.9,0.7c2,0.4,4,0.8,6.1,1.4c2.1,0.5,4.1,1.1,6,1.8c1.4,0.5,2.8,1.1,4.2,1.9
		c2.3,1.2,3.7,2.1,4.4,2.6c1,0.8,1.8,1.7,2.5,2.6c0.7,1,1.2,2,1.6,3.2c0.3,1.2,0.5,2.4,0.4,3.7c0,0.5-0.2,1-0.4,1.5
		c-0.4,0.7-1,1.4-1.7,2.1c1.8-1.1,3.1-2.3,3.8-3.5c0.3-0.5,0.4-1,0.4-1.5C265.4,46.6,265.2,45.3,264.9,44.2z"/>
</g>
<g>
	<path class="st1" d="M209.6,59.6l-0.8,19l2-0.6l0.8-19.3C210.9,59.1,210.2,59.4,209.6,59.6z"/>
	<path class="st1" d="M233.6,36.5c-0.6-1.2-1.4-2.3-2.4-3.3s-2.1-1.7-3.3-2.4c-0.8-0.4-2.6-1.1-5.4-2c-1.7-0.6-3.3-1-5-1.2
		c-2.2-0.3-4.5-0.6-7-0.8c-2.5-0.2-4.8-0.3-7.1-0.3s-4.7,0-7.2,0c0,0.3,0.1,0.8,0.1,1.5c1.8,0,3.5,0,5.1,0c2.3,0,4.6,0.1,7.1,0.3
		c2.5,0.2,4.8,0.4,7,0.8c1.7,0.3,3.3,0.7,5,1.2c2.8,0.9,4.6,1.6,5.4,2c1.2,0.7,2.3,1.5,3.3,2.4c1,0.9,1.8,2,2.4,3.3
		c0.6,1.2,1,2.6,1.1,4c0.1,0.6,0,1.2-0.2,1.8c-0.6,1.8-2.2,3.7-4.7,5.7c0.2-0.1,0.4-0.3,0.6-0.4c3.4-2.4,5.4-4.6,6.2-6.8
		c0.2-0.6,0.3-1.2,0.2-1.8C234.6,39.1,234.2,37.7,233.6,36.5z"/>
</g>
<g>
	<polygon class="st1" points="201.8,70.8 204.4,70.2 174.1,16.5 173,19.6 	"/>
	<polygon class="st1" points="171.8,49 164.9,69.7 166.6,69.4 173.3,49.1 	"/>
</g>
<linearGradient id="polygon16_2_" gradientUnits="userSpaceOnUse" x1="426.7507" y1="-632.0645" x2="416.7334" y2="-613.3958" gradientTransform="matrix(1 0 0 -1 -413.451 -578.5404)">
	<stop  offset="0" style="stop-color:#0070B6"/>
	<stop  offset="1" style="stop-color:#1D2C5E"/>
</linearGradient>
<polygon id="polygon16" class="st2" points="0,36.6 12,56.9 16.8,52.3 3.7,32.8 "/>
<linearGradient id="polygon36_2_" gradientUnits="userSpaceOnUse" x1="493.4529" y1="-616.6404" x2="491.9366" y2="-603.9021" gradientTransform="matrix(1 0 0 -1 -413.451 -578.5404)">
	<stop  offset="0" style="stop-color:#0070B6"/>
	<stop  offset="1" style="stop-color:#1D2C5E"/>
</linearGradient>
<polygon id="polygon36" class="st3" points="76.6,26.6 77.2,39.7 82.9,37.5 81.2,24.1 "/>
<polygon id="polygon60" class="st4" points="139.5,85.3 103.2,67.3 107.7,63.8 144,82.8 "/>
<polygon id="polygon62" class="st5" points="106.6,18.3 101.1,28.7 106.9,27 111.1,15.8 "/>
<linearGradient id="path69_2_" gradientUnits="userSpaceOnUse" x1="471.8214" y1="-631.6638" x2="480.9194" y2="-649.5568" gradientTransform="matrix(1 0 0 -1 -413.451 -578.5404)">
	<stop  offset="0" style="stop-color:#105FA1"/>
	<stop  offset="1" style="stop-color:#1D2C5E"/>
</linearGradient>
<path id="path69" class="st6" d="M56.6,61.4L52,64.6c0,0,1,5.2,2.3,8.8c1.3,3.6,4.3,6.5,4.3,6.5c2,1.9,4.3,3.3,7,4.1
	c5.1,1.5,10.9,0.5,15.9-2.7c1.3-0.8,3.1-2.1,4.2-3.2C80.8,81.1,56.6,61.4,56.6,61.4z"/>
<polygon id="polygon71" class="st5" points="81.5,38.7 85.7,85.4 103.1,82.9 107.7,80.5 86.2,35.9 81.8,37.4 77.2,39.7 "/>
<linearGradient id="polygon78_2_" gradientUnits="userSpaceOnUse" x1="437.4921" y1="-625.5565" x2="448.0216" y2="-649.9659" gradientTransform="matrix(1 0 0 -1 -413.451 -578.5404)">
	<stop  offset="0" style="stop-color:#105FA1"/>
	<stop  offset="1" style="stop-color:#1D2C5E"/>
</linearGradient>
<polygon id="polygon78" class="st7" points="16.5,54.9 35.9,98.8 54.3,92.9 58.8,89.9 20.6,49.9 15.8,52.8 12,56.9 "/>
<path class="st0" d="M160.1,58.8c5.2-3.8,7.6-7.4,7.6-7.4l-5.5-5.1l-1.2-1.1l-3.2-2.9l-0.7-0.6l0.6-0.7l3.4-3.7l1-1.1l1.5-1.6
	l-0.9-1.1l-1.4-1.8c-3.9-4.9-9.7-7.6-16.2-7.7l-3.5-0.1l3-1.6l13.7-7.4l-9-13.4l-17.1,19.7l2.7,3.3l0.8,1l-1.1,0.5
	c-2.7,1.1-5.1,2.7-7.2,4.6l-0.6,0.6l-0.6-0.6l-14.9-13.2l-5,9.5l-1.7-0.4l0.2-8.9l-22.8,7.3l0.5,11.4l3.1-0.8l1-0.3l0.1,1.1l0.6,6.7
	l0.1,1.6l-1.4-0.6c-2.2-1-4.6-1.5-7.2-1.5c-2.7,0-5.4,0.6-8,1.7c-1.5,0.7-2.9,1.5-4.3,2.4l-2,1.4l0.5-2.4c0.9-4,0.6-7.9-0.8-11.2
	c-1.7-4-4.8-7.4-8.7-9.6c-2.6-1.7-5.8-2.9-9.2-3.3c-2.1-0.4-4.2-0.5-6.5-0.5c-6.9,0-14.4,1.7-21.8,4.8c-3.7,1.6-7.1,3.4-10.2,5.3
	l-3.2,2l1.9,3.3l7.4,12.5c0.6,0.9,1.4,2.3,1.8,3.1l3.3-1.6l0.6-0.3l0.8-0.4l0.4,0.8l18.4,41l1.4,3.2l3.3-1.1l9.9-3.2l3.5-1.1
	l-0.9-3.6l-5.3-20.2l-0.2-0.6l0.5-0.4c1.5-1.1,2.9-2.3,4.2-3.5l1.8-1.8l-0.3,2.5c-0.3,2.4-0.1,4.7,0.5,6.9c1.3,4.6,4.3,8.3,8.6,10.4
	c2.3,1.1,4.8,1.6,7.5,1.6c2.7,0,5.3-0.6,7.9-1.7c2.5-1.1,4.9-2.6,6.9-4.7l1.4-1.3l0.2,1.9l0.7,7.1l15.7-2.3l0-14.8l0-1.5l1.3,0.6
	l35,17.3V65.4v-0.8l0.8-0.1c1.5-0.1,2.9-0.4,4.3-0.7c4-1,7.3-2.3,10.2-4L160.1,58.8z M47.9,52.3L47.2,53l-1.1,0.9l-0.4-1.3l-0.3-0.9
	l-2.8-9.3l-0.2-0.6l-0.3-1l1-0.2l0.7-0.1c0.5-0.1,1.1-0.1,1.6-0.1c1.1,0,2.1,0.2,3,0.6c0.8,0.4,2.3,1.3,2.7,3.2
	C51.7,47.3,50.7,49.9,47.9,52.3z M120.4,50.3l-5-1.9l-1.3-0.5l1-1l4.7-4.5l1.8-1.7l-0.2,2.5c-0.2,2-0.1,4.1,0.3,6.2l0.3,1.6
	L120.4,50.3z M145.6,37.6l-0.5,0.6l-6.9,7.8l-0.6,0.6l-0.9,1l-0.6-1.1l-0.4-0.7c-1.4-2.6-1-5.9,1-8.1c1.3-1.5,3.2-2.3,5.1-2.3
	c0.9,0,1.7,0.2,2.5,0.5l0.8,0.3l1.2,0.5L145.6,37.6z"/>
<sodipodi:namedview  bordercolor="#666666" borderopacity="1" gridtolerance="10" guidetolerance="10" id="namedview103" inkscape:current-layer="Layer_1" inkscape:cx="134.7345" inkscape:cy="49.407001" inkscape:pageopacity="0" inkscape:pageshadow="2" inkscape:window-height="706" inkscape:window-maximized="1" inkscape:window-width="1280" inkscape:window-x="-8" inkscape:window-y="-8" inkscape:zoom="4.1563223" objecttolerance="10" pagecolor="#ffffff" showgrid="false">
	</sodipodi:namedview>
<linearGradient id="polygon25_2_" gradientUnits="userSpaceOnUse" x1="548.926" y1="-593.9268" x2="561.6412" y2="-580.3028" gradientTransform="matrix(1 0 0 -1 -413.451 -578.5404)">
	<stop  offset="0" style="stop-color:#0070B6"/>
	<stop  offset="1" style="stop-color:#1D2C5E"/>
</linearGradient>
<polygon id="polygon25" class="st8" points="145,2.3 126.5,23.5 131.9,22 149.5,0 "/>
<polygon id="polygon58" class="st5" points="129.8,27.4 126.2,29.3 126.5,30.5 135,25.1 131.3,21.1 126.5,23.5 "/>
<path id="path82" class="st5" d="M143.3,64.4l0.7,3.5c3.7-0.6,6.9-1.9,10.1-3.8c2-1.2,4.1-2.9,4.8-3.4
	C158.4,61,143.3,64.4,143.3,64.4z"/>
<path id="path88" class="st9" d="M152.4,47c-0.1,0.1-0.1,0.1-0.2,0.2C152.3,47.2,152.4,47.1,152.4,47L152.4,47z"/>
<polygon id="polygon90" class="st9" points="158.4,41.6 161.8,37.9 160.6,39.1 160.6,39 159.6,40.1 156.2,43.7 159.4,46.6 160,43 
	161.6,44.4 "/>
<path id="path94" class="st9" d="M115.7,47.5L115.7,47.5L115.7,47.5z"/>
<path id="path96" class="st1" d="M134.7,50.7c0.3,0.3,0,0.1,0.3,0.3l2.1-1.5c-0.3-0.2-0.6-0.5-0.9-0.7c-3-2.8-2.3-9-0.3-12.4
	C130.7,40.6,131,47,134.7,50.7"/>
<path id="path98" class="st1" d="M160,54.2c-3.5,2.9-7.4,4.7-12.6,6c-1.1,0.3-2.3,0.5-3.3,0.5c-8.3,0.8-15.2-3-17.8-9.1
	c-0.3-0.7-0.6-1.5-0.8-2.3c-1.2-5.2-0.2-9.8,2.4-13.5c0.3-0.4,0.5-0.7,0.8-1c-0.1,0.1-0.3,0.2-0.4,0.3c-1,0.9-1.9,1.8-2.6,2.9
	c-2.6,3.6-3.6,8.3-2.4,13.5c0.2,0.8,0.4,1.6,0.8,2.3c2.6,6.2,9.6,10,17.8,9.2c1.1-0.1,2.2-0.3,3.4-0.6c5.2-1.3,9.2-3.1,12.6-6
	c0.8-0.7,1.7-1.5,2.5-2.3l-0.1-0.1C160.1,54.1,160,54.1,160,54.2"/>
<polygon id="polygon100" class="st1" points="101.7,38.5 110.9,25.5 110.5,25.2 101.6,37.7 "/>
<polygon id="polygon104" class="st1" points="151.4,15.4 154.6,14 148.7,6.4 146.8,9.2 "/>
<path id="path106" class="st1" d="M61.8,34.2C46.8,16,19.9,25.8,10.3,34.3l0.4,0.7c2.2-1.3,4.6-2.4,7-3.5c9.6-4.1,18.8-5.3,26.1-4
	c2.6,0.3,5.3,1.1,7.7,2.7c3.3,1.9,5.8,4.5,7.3,7.9c2.6,6,0.3,14-5.8,20.6C60.7,51.6,66,44.8,61.8,34.2z"/>
<path id="path108" class="st1" d="M92.3,55.4c-0.1-0.3-0.1-0.7-0.2-1c-0.8-3-2.6-5.4-5-7c-3.8-2.6-9.2-3.1-14.5-0.9
	c-2.8,1.2-5.2,3.1-7.2,5.3c1.5-1.3,3.2-2.3,5-3.1c5.3-2.3,10.7-1.7,14.5,0.9c2.4,1.6,4.2,4,5,7c0.1,0.3,0.2,0.7,0.2,1
	c0.2,1.2,0.3,2.3,0.3,3.5c-0.1,3.5-1.4,7-3.5,10c-0.3,0.5-0.7,0.9-1.1,1.4c1.2-1.1,2.3-2.2,3.2-3.5c2.2-3,3.4-6.5,3.6-10
	C92.6,57.8,92.5,56.6,92.3,55.4"/>
<path id="path110" class="st1" d="M77.6,51c0,0,2.2-2.2,2.1-2.2c-2.7-0.1-3.9,2.5-4,2.7C76.3,51.2,76.9,51.1,77.6,51"/>
<path id="path112" class="st1" d="M82.7,54.1c0.1,0.4,0.2,0.7,0.2,1.1c0,0.6-0.1,1.1-0.4,1.6c0.4-0.2,3.6-1.8,2.4-5
	C85,52,82.6,54.1,82.7,54.1"/>
<path id="path114" class="st1" d="M70.3,56c0-1.3,2.3-4.6,3-5.7c-3.6,2.3-5.2,5.4-5.2,7.8c0,4.2,3.7,7.6,8.1,7.6
	c2.1,0,5.9-1.1,8.4-5.1c-1.3,0.9-4.6,2.9-6.4,2.9C73.8,63.5,70.3,60.2,70.3,56"/>
<polygon id="polygon116" class="st1" points="101.2,59.8 101.3,76.7 104,76.9 103.4,57.6 "/>
<polygon id="polygon118" class="st1" points="85.8,27.5 85.8,29 98.6,25.2 99.5,41.5 101.7,38.5 101.2,22.2 "/>
<polygon id="polygon120" class="st1" points="124.3,33.3 112.4,22.3 110.9,25.5 121.5,35.4 "/>
<path id="path122" class="st1" d="M122.5,53.8l-14.1-4.7l-2,2.2l14,5.6c1.6,3,4,5.6,7,7.4c2.9,1.8,6.3,2.9,9.8,3.2v6.9l2.2,1.1
	l0.7-10.4L122.5,53.8L122.5,53.8z"/>
<path id="path124" class="st1" d="M145.1,51.9c3.5-0.8,5.4-2.6,7.2-4.6c-1.3,1.1-7.7,2.5-8.8,2.8l-2.1,2.3
	C142.3,52.4,143.9,52.2,145.1,51.9"/>
<path id="path126" class="st1" d="M138.8,27.9c-6.4,0.8-9.7,6.2-10.2,6.8c2.4-2,5.3-3.5,8.6-4.2c7.9-1.9,14.8,0.5,19.1,5.8l2.7-2.3
	C154.7,28.9,146.7,26,138.8,27.9"/>
<path id="path128" class="st1" d="M160.2,54c0.8-0.6,2.1-1.3,2.9-2.1l-8.5-7.6c-0.7,0.8-1.2,2.1-2,2.7L160.2,54L160.2,54z"/>
<polygon id="polygon152" class="st1" points="53.4,86.8 46.9,63.1 44.5,64.8 50.6,87.5 "/>
<path id="path154" class="st1" d="M51.7,51.2c-1.5,1.6-4.9,4.7-6.8,5.9l-1.2-3.7l-2.5-8.2l-1.6-5.5l-1.6,2l1.6,5.5l2.5,8.1l1.2,3.7
	C46,57.5,49.8,54.3,51.7,51.2"/>
<path id="path156" class="st9" d="M144.5,37.1c-2.1-0.8-5-0.6-6.6,1.2c-0.4,0.4-1.1,1.4-1.3,1.9c1.5-1.2,4.3-1.5,6-0.8L144.5,37.1
	L144.5,37.1z"/>
<path id="path158" class="st9" d="M49.9,44.5c-0.2-1.2-1.4-2.2-2-2.5c-1-0.5-2.9-0.6-4.2-0.3c0.2,0.8,0.5,1.8,0.6,2.2
	c0.5,0.1,1.4,0.2,1.9,0.4c0.6,0.3,1.6,0.9,1.8,2.2c0.3,1.6,0.2,3.2-0.5,4.4C49.4,49.1,50.3,47.1,49.9,44.5"/>
<g id="g160" transform="translate(-5.451,-1.686)">
	<g id="g162">
		<path id="path164" class="st10" d="M58.6,46.1c-0.9-4.8-7.2-7.5-13.5-4.1l1.6,5.5l2.5,8.2l1.2,3.7C55.1,56.5,59.8,52.8,58.6,46.1z
			 M52.4,53.6c-0.7-2.2-2.2-7-2.2-7c0,0-0.3-1-0.7-2.2c1.3-0.2,2.6-0.1,3.6,0.4c0.6,0.3,1.6,0.9,1.8,2.2
			C55.5,49.6,54.6,51.6,52.4,53.6z"/>
	</g>
</g>
<g id="g166" transform="translate(-5.451,-1.686)">
	<g id="g168">
		<path id="path170" class="st11" d="M153.2,38.5c-3.5-3.2-8.9-3-12.1,0.5c-3.2,3.5-3,8.9,0.5,12.1c0.3,0.3,0.6,0.5,0.9,0.7
			l11.3-12.8C153.6,38.9,153.4,38.7,153.2,38.5z M142.6,47.5c-1.1-2-0.9-4.6,0.8-6.4c1.6-1.7,4-2.2,6.1-1.4L142.6,47.5z"/>
	</g>
</g>
<path class="st1" d="M178.5,43l-3.9-9.4c0,0-2.7,9.3-2.7,9.4C171.8,43.1,178.5,43,178.5,43z"/>
<linearGradient id="path183_2_" gradientUnits="userSpaceOnUse" x1="639.706" y1="3817.4155" x2="655.635" y2="3817.4155" gradientTransform="matrix(1 0 0 1 -569.451 -3761.3318)">
	<stop  offset="0" style="stop-color:#3C5AA6"/>
	<stop  offset="0.9331" style="stop-color:#2B73B9"/>
	<stop  offset="1" style="stop-color:#2A75BB"/>
</linearGradient>
<path id="path183" class="st12" d="M85.1,53.1c0,2.4-2.2,4.3-4.8,4.3c-2.7,0-4.8-1.9-4.8-4.3c0-2.2,1.9-4.1,4.4-4.3
	c-0.5-0.1-1-0.1-1.5-0.1c-4.5,0-8,3.3-8,7.3c0,4.2,3.5,7.5,7.9,7.5c4.5,0,8-3.3,8-7.5c0-1.5-0.5-2.8-1.3-4
	C85,52.3,85.1,52.7,85.1,53.1"/>
<path class="st1" d="M219.8,43c-0.8-0.5-1.6-0.9-2.5-1.1c-2.5-0.8-4.9-0.9-7-0.2l-0.5,9.3c1.6-0.8,3.6-2,6.1-3.5s3.8-2.7,4.1-3.7
	C220.1,43.4,220,43.2,219.8,43z"/>
<path class="st4" d="M249.7,60.8c-2,0.6-3.6,1-4.9,1.4l-0.3,1.2c0.2-0.1,0.4-0.1,0.6-0.2c3.1-0.9,6.5-2.2,9.9-3.8
	c1.2-0.6,2.3-1.2,3.3-1.8C255.3,58.9,252.4,60,249.7,60.8z"/>
<polygon class="st4" points="143.8,78.9 148.4,76.5 169.5,72.9 164.9,75.3 "/>
<linearGradient id="SVGID_1_" gradientUnits="userSpaceOnUse" x1="174.916" y1="65.3666" x2="192.5806" y2="65.3666">
	<stop  offset="0" style="stop-color:#105FA1"/>
	<stop  offset="1" style="stop-color:#1D2C5E"/>
</linearGradient>
<polygon class="st13" points="176.6,51.5 174.9,56.7 188,79.2 192.6,76.8 177.9,51.6 "/>
<polygon class="st4" points="198,77 188,79.2 192.6,76.8 198,75.6 "/>
<linearGradient id="SVGID_2_" gradientUnits="userSpaceOnUse" x1="193.4082" y1="81.7304" x2="198.1799" y2="81.7304">
	<stop  offset="0" style="stop-color:#105FA1"/>
	<stop  offset="1" style="stop-color:#1D2C5E"/>
</linearGradient>
<polygon class="st14" points="193.6,87.8 198.2,85.5 198,75.6 193.4,78 "/>
<polygon class="st4" points="214.1,80.5 209.5,82.8 193.6,87.8 198.2,85.5 "/>
<polygon class="st4" points="240.9,79.6 236.3,82 221.6,83.8 226.2,81.5 "/>
<linearGradient id="SVGID_3_" gradientUnits="userSpaceOnUse" x1="221.5805" y1="67.529" x2="231.1277" y2="67.529">
	<stop  offset="0" style="stop-color:#105FA1"/>
	<stop  offset="1" style="stop-color:#1D2C5E"/>
</linearGradient>
<polygon class="st15" points="231.1,51.2 226.5,53.6 221.6,83.8 226.2,81.5 "/>
<polygon class="st5" points="197.5,44.5 194.8,45.4 197.6,50.3 "/>
<linearGradient id="SVGID_4_" gradientUnits="userSpaceOnUse" x1="187.8458" y1="33.1047" x2="193.5923" y2="33.1047">
	<stop  offset="0" style="stop-color:#0070B6"/>
	<stop  offset="1" style="stop-color:#1D2C5E"/>
</linearGradient>
<polygon class="st16" points="192.5,23 187.8,25.4 188.4,33.9 193.6,43.2 "/>
<linearGradient id="SVGID_5_" gradientUnits="userSpaceOnUse" x1="144.005" y1="71.0149" x2="153.1232" y2="71.0149">
	<stop  offset="0" style="stop-color:#105FA1"/>
	<stop  offset="1" style="stop-color:#1D2C5E"/>
</linearGradient>
<polygon class="st17" points="153.1,63.3 148.1,66.9 144,78.2 144,78.7 148.4,76.5 "/>
<polygon class="st5" points="162.5,37.1 160.3,43.3 158.4,41.6 "/>
<linearGradient id="SVGID_6_" gradientUnits="userSpaceOnUse" x1="161.2472" y1="20.3479" x2="173.2894" y2="20.3479">
	<stop  offset="0" style="stop-color:#0070B6"/>
	<stop  offset="1" style="stop-color:#1D2C5E"/>
</linearGradient>
<path class="st18" d="M163.8,33.5c0,0-1.4-2-2.6-3.3l7.4-20.7l4.6-2.4L163.8,33.5z"/>
<g>
	
		<linearGradient id="polygon16_3_" gradientUnits="userSpaceOnUse" x1="426.7507" y1="-743.0881" x2="416.7334" y2="-724.4194" gradientTransform="matrix(1 0 0 -1 -413.451 -578.5404)">
		<stop  offset="0" style="stop-color:#0070B6"/>
		<stop  offset="1" style="stop-color:#1D2C5E"/>
	</linearGradient>
	<polygon id="polygon16_1_" class="st19" points="0,147.6 12,167.9 16.8,163.3 3.7,143.8 	"/>
	<polygon id="polygon18_1_" class="st20" points="178.6,131.6 178.1,134.3 183.8,132.4 183.1,129.2 	"/>
	
		<linearGradient id="polygon25_3_" gradientUnits="userSpaceOnUse" x1="548.926" y1="-704.9504" x2="561.6412" y2="-691.3265" gradientTransform="matrix(1 0 0 -1 -413.451 -578.5404)">
		<stop  offset="0" style="stop-color:#0070B6"/>
		<stop  offset="1" style="stop-color:#1D2C5E"/>
	</linearGradient>
	<polygon id="polygon25_1_" class="st21" points="145,113.3 126.5,134.6 131.9,133 149.5,111 	"/>
	<polygon id="polygon27_1_" class="st5" points="244.1,142.4 248.6,139.9 247.3,151.3 	"/>
	<polygon id="polygon29_1_" class="st5" points="215.8,149.7 219.9,150.5 225,148 220.5,146.3 	"/>
	
		<linearGradient id="polygon36_3_" gradientUnits="userSpaceOnUse" x1="493.4528" y1="-727.6641" x2="491.9365" y2="-714.9257" gradientTransform="matrix(1 0 0 -1 -413.451 -578.5404)">
		<stop  offset="0" style="stop-color:#0070B6"/>
		<stop  offset="1" style="stop-color:#1D2C5E"/>
	</linearGradient>
	<polygon id="polygon36_1_" class="st22" points="76.6,137.6 77.2,150.8 82.9,148.5 81.2,135.1 	"/>
	
		<linearGradient id="polygon43_2_" gradientUnits="userSpaceOnUse" x1="632.3474" y1="-725.212" x2="631.7419" y2="-713.714" gradientTransform="matrix(1 0 0 -1 -413.451 -578.5404)">
		<stop  offset="0" style="stop-color:#125D9E"/>
		<stop  offset="1" style="stop-color:#1D2C5E"/>
	</linearGradient>
	<polygon id="polygon43_1_" class="st23" points="220.2,133.7 215.7,136.1 215.8,149.7 220.4,147.3 221.8,140.8 	"/>
	<polygon id="polygon45_1_" class="st24" points="219.6,150.5 214.6,194.9 222.6,193.3 224.1,148.1 	"/>
	<polygon id="polygon47_1_" class="st4" points="229.3,197 229.5,203 244.8,207.9 249.4,205.5 234.3,193.9 219.1,192.5 214.6,194.9 
			"/>
	<polygon id="polygon49_1_" class="st4" points="172.5,186.4 176.2,184.4 178.7,188.8 182.2,186.9 182.9,192.7 205.2,196.7 
		209.6,194.2 178.9,175.5 157.1,179.3 152.9,183.3 	"/>
	
		<linearGradient id="polygon56_2_" gradientUnits="userSpaceOnUse" x1="589.9117" y1="-708.639" x2="576.5682" y2="-729.8671" gradientTransform="matrix(1 0 0 -1 -413.451 -578.5404)">
		<stop  offset="0" style="stop-color:#125D9E"/>
		<stop  offset="1" style="stop-color:#1D2C5E"/>
	</linearGradient>
	<polygon id="polygon56_1_" class="st25" points="165.4,131.9 160.9,134.3 152.9,183.3 157.4,181 165.1,153.4 	"/>
	<polygon id="polygon58_1_" class="st5" points="129.8,138.4 126.2,140.3 126.5,141.5 135,136.1 131.3,132.2 126.5,134.6 	"/>
	<polygon id="polygon60_1_" class="st4" points="139.5,196.3 103.2,178.3 107.7,174.8 144,193.9 	"/>
	<polygon id="polygon62_1_" class="st5" points="106.6,129.3 101.1,139.7 106.9,138 111.1,126.9 	"/>
	
		<linearGradient id="path69_3_" gradientUnits="userSpaceOnUse" x1="471.8214" y1="-742.6875" x2="480.9194" y2="-760.5804" gradientTransform="matrix(1 0 0 -1 -413.451 -578.5404)">
		<stop  offset="0" style="stop-color:#105FA1"/>
		<stop  offset="1" style="stop-color:#1D2C5E"/>
	</linearGradient>
	<path id="path69_1_" class="st26" d="M56.6,172.4l-4.6,3.2c0,0,1,5.2,2.3,8.8c1.3,3.6,4.3,6.5,4.3,6.5c2,1.9,4.3,3.3,7,4.1
		c5.1,1.5,10.9,0.5,15.9-2.7c1.3-0.8,3.1-2.1,4.2-3.2C80.8,192.2,56.6,172.4,56.6,172.4z"/>
	<polygon id="polygon71_1_" class="st5" points="81.5,149.7 85.7,196.5 103.1,193.9 107.7,191.5 86.2,146.9 81.8,148.4 77.2,150.8 	
		"/>
	
		<linearGradient id="polygon78_3_" gradientUnits="userSpaceOnUse" x1="437.4921" y1="-736.5801" x2="448.0216" y2="-760.9895" gradientTransform="matrix(1 0 0 -1 -413.451 -578.5404)">
		<stop  offset="0" style="stop-color:#105FA1"/>
		<stop  offset="1" style="stop-color:#1D2C5E"/>
	</linearGradient>
	<polygon id="polygon78_1_" class="st27" points="16.5,165.9 35.9,209.8 54.3,203.9 58.8,200.9 20.6,161 15.8,163.8 12,167.9 	"/>
	<path id="path80_1_" class="st5" d="M208.4,186.7l0.3,2.2c1.6-0.2,3.2-0.4,4.7-0.9c1.7-0.6,5.3-2.2,6.6-3.4
		C219.4,184.7,211,186.9,208.4,186.7"/>
	<path id="path82_1_" class="st5" d="M143.3,175.4l0.7,3.5c3.7-0.6,6.9-1.9,10.1-3.8c2-1.2,4.1-2.9,4.8-3.4
		C158.4,172,143.3,175.4,143.3,175.4z"/>
	<g id="g84" transform="translate(-5.451,-1.686)">
		<path id="path86" class="st0" d="M46.4,207.4l-1.4-3.2l-18.4-41l-0.4-0.8l-0.8,0.4l-0.6,0.3l-3.3,1.6c-0.5-0.8-1.3-2.2-1.8-3.1
			L12.3,149l-1.9-3.3l3.2-2c3-1.9,6.4-3.7,10.2-5.3c7.4-3.2,14.9-4.8,21.8-4.8c2.3,0,4.5,0.2,6.5,0.5c3.4,0.4,6.6,1.5,9.2,3.3
			c3.9,2.2,7,5.6,8.7,9.6c1.4,3.3,1.7,7.2,0.8,11.2l-0.5,2.4l2-1.4c1.3-1,2.7-1.8,4.3-2.4c2.6-1.1,5.3-1.7,8-1.7
			c2.6,0,5,0.5,7.2,1.5l1.4,0.6l-0.1-1.6l-0.6-6.7l-0.1-1.1l-1,0.3l-3.1,0.8l-0.5-11.4l22.8-7.3l-0.2,8.9l1.7,0.4l5-9.5l14.9,13.2
			l0.6,0.6l0.6-0.6c2-1.9,4.5-3.5,7.2-4.6l1.1-0.5l-0.8-1l-2.7-3.3l17.1-19.7l9,13.4l-13.7,7.4l-3,1.6l3.5,0.1
			c6.5,0.1,12.3,2.9,16.2,7.7l1.4,1.8l0.9,1.1l-1.5,1.6l-1,1.1l-3.4,3.7l-0.6,0.7l0.7,0.6l3.2,2.9l1.2,1.1l0.3-1.6l1.2-7.6l0.3-2
			l0,0l0.3-2l1.8-11.3H188h0.8l0.1-0.8l0.3-1.9h14.8l3.6,22.6l0.2,1.5l1.2-0.9c1.5-1.1,3.1-1.9,4.8-2.6c2.3-0.9,4.6-1.3,7-1.3
			c2.8,0,5.5,0.6,7.8,1.9c0.1,0,0.1,0.1,0.3,0.2l1.1,0.4l0.1-1.2l0.3-2.5l0.1-0.8l-0.8-0.2l-3-0.7l-0.1-11.8l22.9,5l1.7,8.5l1.8,0
			l1.8-7.3l19.1,4.6l-19.5,58.7l-13.9-4.4l-0.1-5.4l0-0.8l-0.8-0.1l-13.9-2l0.8-7.1l0.2-1.7l-1.5,0.8c-0.7,0.4-1.4,0.7-2.1,0.9
			c-2.3,0.9-4.6,1.3-6.9,1.3c-0.7,0-1.3,0-2-0.1l-1.2-0.1l0.2,1.2l1,6.2l-20.3-3.6l-1.1-9.2l-0.3-3l-1.4,2.6l-2.3,4.5l-4.3-7.9
			l-1.3-2.4l-0.4,2.7l-0.9,6.1l-17.8-2.8l1.4-8.4l0.3-1.9l-1.7,1c-2.9,1.7-6.3,3.1-10.2,4c-1.4,0.3-2.8,0.6-4.3,0.7l-0.8,0.1v0.8
			v15.9l-35-17.3l-1.3-0.6l0,1.5l0,14.8l-15.7,2.3l-0.7-7.1l-0.2-1.9l-1.4,1.3c-2.1,2-4.4,3.6-6.9,4.7c-2.6,1.1-5.3,1.7-7.9,1.7
			c-2.7,0-5.2-0.6-7.5-1.6c-4.2-2-7.3-5.7-8.6-10.4c-0.6-2.2-0.8-4.5-0.5-6.9l0.3-2.5l-1.8,1.8c-1.3,1.2-2.7,2.4-4.2,3.5l-0.5,0.4
			l0.2,0.6l5.3,20.2l0.9,3.6l-3.5,1.1l-9.9,3.2L46.4,207.4C46.4,207.4,46.4,207.4,46.4,207.4z M50.8,153c-0.5,0-1,0-1.6,0.1
			l-0.7,0.1l-1,0.2l0.3,1l0.2,0.6l2.8,9.3l0.3,0.9l0.4,1.3l1-0.9l0.7-0.6c2.8-2.5,3.7-5,3.1-8.2c-0.4-1.9-1.8-2.8-2.7-3.2
			C53,153.2,51.9,153,50.8,153L50.8,153L50.8,153z M127,153.3l-1.8,1.7l-4.7,4.5l-1,1l1.3,0.5l5,1.9l1.5,0.6l-0.3-1.6
			c-0.4-2.1-0.5-4.2-0.3-6.2L127,153.3C127,153.3,127,153.3,127,153.3z M147.4,148.1c-1.9,0-3.8,0.8-5.1,2.3c-2,2.2-2.4,5.5-1,8.1
			l0.4,0.7l0.6,1.1l0.9-1l0.6-0.6l6.9-7.8l0.5-0.6l0.9-1l-1.2-0.5l-0.8-0.3C149.1,148.3,148.3,148.1,147.4,148.1L147.4,148.1
			L147.4,148.1z"/>
	</g>
	<path id="path88_1_" class="st9" d="M152.4,158.1c-0.1,0.1-0.1,0.1-0.2,0.2C152.3,158.2,152.4,158.1,152.4,158.1L152.4,158.1z"/>
	<polygon id="polygon90_1_" class="st9" points="158.4,152.6 161.8,148.9 160.6,150.2 160.6,150 159.6,151.1 156.2,154.7 
		159.4,157.6 160,154 161.6,155.5 	"/>
	<polygon id="polygon92" class="st9" points="158.4,152.6 161.6,155.5 162.8,147.8 161.8,148.9 	"/>
	<path id="path94_1_" class="st9" d="M115.7,158.5L115.7,158.5L115.7,158.5z"/>
	<path id="path96_1_" class="st1" d="M134.7,161.7c0.3,0.3,0,0.1,0.3,0.3l2.1-1.5c-0.3-0.2-0.6-0.5-0.9-0.7c-3-2.8-2.3-9-0.3-12.4
		C130.7,151.6,131,158,134.7,161.7"/>
	<path id="path98_1_" class="st1" d="M160,165.2c-3.5,2.9-7.4,4.7-12.6,6c-1.1,0.3-2.3,0.5-3.3,0.5c-8.3,0.8-15.2-3-17.8-9.1
		c-0.3-0.7-0.6-1.5-0.8-2.3c-1.2-5.2-0.2-9.8,2.4-13.5c0.3-0.4,0.5-0.7,0.8-1c-0.1,0.1-0.3,0.2-0.4,0.3c-1,0.9-1.9,1.8-2.6,2.9
		c-2.6,3.6-3.6,8.3-2.4,13.5c0.2,0.8,0.4,1.6,0.8,2.3c2.6,6.2,9.6,10,17.8,9.2c1.1-0.1,2.2-0.3,3.4-0.6c5.2-1.3,9.2-3.1,12.6-6
		c0.8-0.7,1.7-1.5,2.5-2.3l-0.1-0.1C160.1,165.1,160,165.1,160,165.2"/>
	<polygon id="polygon100_1_" class="st1" points="101.7,149.5 110.9,136.5 110.5,136.2 101.6,148.7 	"/>
	<polygon id="polygon102" class="st1" points="162.8,147.8 161.6,155.5 160,154 159.4,157.6 156.2,154.7 159.6,151.1 160.6,150 
		160.6,150.2 161.8,148.9 	"/>
	<polygon id="polygon104_1_" class="st1" points="151.4,126.5 154.6,125.1 148.7,117.5 146.8,120.2 	"/>
	<path id="path106_1_" class="st1" d="M61.8,145.3c-14.9-18.2-41.8-8.4-51.5,0.1l0.4,0.7c2.2-1.3,4.6-2.4,7-3.5
		c9.6-4.1,18.8-5.3,26.1-4c2.6,0.3,5.3,1.1,7.7,2.7c3.3,1.9,5.8,4.5,7.3,7.9c2.6,6,0.3,14-5.8,20.6C60.7,162.6,66,155.9,61.8,145.3z
		"/>
	<path id="path108_1_" class="st1" d="M92.3,166.5c-0.1-0.3-0.1-0.7-0.2-1c-0.8-3-2.6-5.4-5-7c-3.8-2.6-9.2-3.1-14.5-0.9
		c-2.8,1.2-5.2,3.1-7.2,5.3c1.5-1.3,3.2-2.3,5-3.1c5.3-2.3,10.7-1.7,14.5,0.9c2.4,1.6,4.2,4,5,7c0.1,0.3,0.2,0.7,0.2,1
		c0.2,1.2,0.3,2.3,0.3,3.5c-0.1,3.5-1.4,7-3.5,10c-0.3,0.5-0.7,0.9-1.1,1.4c1.2-1.1,2.3-2.2,3.2-3.5c2.2-3,3.4-6.5,3.6-10
		C92.6,168.8,92.5,167.6,92.3,166.5"/>
	<path id="path110_1_" class="st1" d="M77.5,162c0,0,2.2-2.2,2.1-2.2c-2.7-0.1-3.9,2.5-4,2.7C76.3,162.3,76.9,162.1,77.5,162"/>
	<path id="path112_1_" class="st1" d="M82.7,165.2c0.1,0.4,0.2,0.7,0.2,1.1c0,0.6-0.1,1.1-0.4,1.6c0.4-0.2,3.6-1.8,2.4-5
		C85,163,82.6,165.2,82.7,165.2"/>
	<path id="path114_1_" class="st1" d="M70.3,167c0-1.3,2.3-4.6,3-5.7c-3.6,2.3-5.2,5.4-5.2,7.8c0,4.2,3.7,7.6,8.1,7.6
		c2.1,0,5.9-1.1,8.4-5.1c-1.3,0.9-4.6,2.9-6.4,2.9C73.8,174.5,70.3,171.2,70.3,167"/>
	<polygon id="polygon116_1_" class="st1" points="101.2,170.8 101.3,187.8 104,187.9 103.4,168.6 	"/>
	<polygon id="polygon118_1_" class="st1" points="85.8,138.5 85.8,140 98.6,136.2 99.5,152.5 101.7,149.5 101.2,133.2 	"/>
	<polygon id="polygon120_1_" class="st1" points="124.3,144.3 112.4,133.4 110.9,136.5 121.5,146.4 	"/>
	<path id="path122_1_" class="st1" d="M122.5,164.8l-14.1-4.7l-2,2.2l14,5.6c1.6,3,4,5.6,7,7.4c2.9,1.8,6.3,2.9,9.8,3.2v6.9l2.2,1.1
		l0.7-10.4L122.5,164.8L122.5,164.8z"/>
	<path id="path124_1_" class="st1" d="M145.1,162.9c3.5-0.8,5.4-2.6,7.2-4.6c-1.3,1.1-7.7,2.5-8.8,2.8l-2.1,2.3
		C142.3,163.4,143.9,163.2,145.1,162.9"/>
	<path id="path126_1_" class="st1" d="M138.8,139c-6.4,0.8-9.7,6.2-10.2,6.8c2.4-2,5.3-3.5,8.6-4.2c7.9-1.9,14.8,0.5,19.1,5.8
		l2.7-2.3C154.7,139.9,146.7,137.1,138.8,139"/>
	<path id="path128_1_" class="st1" d="M160.2,165c0.8-0.6,2.1-1.3,2.9-2.1l-8.5-7.6c-0.7,0.8-1.2,2.1-2,2.7L160.2,165L160.2,165z"/>
	<path id="path130_1_" class="st1" d="M203.9,185.4c-8.9-7.4-8.4-23.1-4-28.1l-3.9-24.7l-8.6,1.1l-0.4,2.2h6.5l3.5,22.4
		c-4.4,5-6.5,11.7-5.1,17.9c1.1,4.8,4.1,8.6,8.3,10.8c0.4,0.2,0.9,0.4,1.3,0.6l0.1,0.3l2.6,0.4C204.1,188.4,204.4,185.7,203.9,185.4
		L203.9,185.4z"/>
	<polygon id="polygon132_1_" class="st1" points="169.5,136.2 169.2,138.4 179,138.4 181.9,154.3 184.1,152.1 181.8,135.3 	"/>
	<polygon id="polygon134_1_" class="st1" points="186.4,167.1 183.2,175.3 184,177.4 188.5,164.9 	"/>
	<polygon id="polygon136_1_" class="st1" points="177,161.9 174.8,164.1 172.4,178.9 174.7,179.8 	"/>
	<path id="path138_1_" class="st1" d="M221.1,157.2c1.3,0.9,2.4,2.1,3.2,3.5c0.7,1.1,1.1,2.2,1.5,3.6c1.1,4.5-0.2,9.3-3,13.1
		c-0.3,0.4-0.6,0.8-0.9,1.1c1.1-1,15.1-11.3,1.5-24.8c-15-4.9-20.7,4.8-21.2,5.5c1.6-1.3,3.4-2.5,5.4-3.2
		C212.6,154,217.6,154.6,221.1,157.2"/>
	<path id="path140_1_" class="st1" d="M213.6,158.1c0,0.1,2.2-2.2,2.2-2.2c-2.7,0.1-4,1.4-3.8,2c-0.2,0.2-0.3,0.5-0.4,0.7
		C212.1,158.4,213.2,158.1,213.6,158.1"/>
	<path id="path142_1_" class="st1" d="M218.6,161.5c0.1,0.4,0.1,0.7,0.1,1.1c0,0.5-0.2,1-0.4,1.4c0.4-0.2,3.6-1.2,2.4-4.8
		C220.8,159.4,218.5,161.5,218.6,161.5"/>
	<path id="path144_1_" class="st1" d="M211.5,172.8c3,0.1,6.4-1.7,8.8-5c-6.1,1.3-12.6-9-12-10c-2.3,1.7-4.4,4.9-4.5,7.2
		C203.6,169.2,207.1,172.6,211.5,172.8"/>
	<polygon id="polygon146_1_" class="st1" points="245.2,199.5 246.6,200.5 264.2,147.7 251,144.6 250.9,147.7 261.5,150.1 	"/>
	<polygon id="polygon148_1_" class="st1" points="224.3,139 224.4,141.9 238.4,144.7 243.8,170.3 246,168.1 240.8,142.3 	"/>
	<polygon id="polygon150_1_" class="st1" points="235.1,168.1 231.2,189.9 233.4,190.6 237.3,165.9 	"/>
	<polygon id="polygon152_1_" class="st1" points="53.4,197.9 46.9,174.1 44.5,175.8 50.6,198.6 	"/>
	<path id="path154_1_" class="st1" d="M51.7,162.2c-1.5,1.6-4.9,4.7-6.8,5.9l-1.2-3.7l-2.5-8.2l-1.6-5.5l-1.6,2l1.6,5.5l2.5,8.1
		l1.2,3.7C46,168.5,49.8,165.3,51.7,162.2"/>
	<path id="path156_1_" class="st9" d="M144.5,148.2c-2.1-0.8-5-0.6-6.6,1.2c-0.4,0.4-1.1,1.4-1.3,1.9c1.5-1.2,4.3-1.5,6-0.8
		L144.5,148.2L144.5,148.2z"/>
	<path id="path158_1_" class="st9" d="M49.9,155.5c-0.2-1.2-1.4-2.2-2-2.5c-1-0.5-2.9-0.6-4.2-0.3c0.2,0.8,0.5,1.8,0.6,2.2
		c0.5,0.1,1.4,0.2,1.9,0.4c0.6,0.3,1.6,0.9,1.8,2.2c0.3,1.6,0.2,3.2-0.4,4.4C49.4,160.1,50.3,158.1,49.9,155.5"/>
	<g id="g160_1_" transform="translate(-5.451,-1.686)">
		<g id="g162_1_">
			<path id="path164_1_" class="st10" d="M58.6,157.2c-0.9-4.8-7.2-7.5-13.5-4.1l1.6,5.5l2.5,8.2l1.2,3.7
				C55.1,167.5,59.8,163.9,58.6,157.2z M52.4,164.6c-0.7-2.2-2.2-7-2.2-7c0,0-0.3-1-0.7-2.2c1.3-0.2,2.6-0.1,3.6,0.4
				c0.6,0.3,1.6,0.9,1.8,2.2C55.5,160.6,54.6,162.6,52.4,164.6z"/>
		</g>
	</g>
	<g id="g166_1_" transform="translate(-5.451,-1.686)">
		<g id="g168_1_">
			<path id="path170_1_" class="st11" d="M153.2,149.5c-3.5-3.2-8.9-3-12.1,0.5c-3.2,3.5-3,8.9,0.5,12.1c0.3,0.3,0.6,0.5,0.9,0.7
				l11.3-12.8C153.6,149.9,153.4,149.7,153.2,149.5z M142.6,158.5c-1.1-2-0.9-4.6,0.8-6.4c1.6-1.7,4-2.2,6.1-1.4L142.6,158.5z"/>
		</g>
	</g>
	<polygon id="polygon172" class="st28" points="162.8,146.4 156.6,152.4 162.5,157.8 	"/>
	<path id="path174_1_" class="st29" d="M220.7,159.3c0.1,0.4,0.1,0.8,0.1,1.2c-0.1,2.4-2.3,4.2-5,4.1c-2.7-0.1-4.8-2.1-4.7-4.5
		c0.1-2.2,2.1-4,4.5-4.1c-0.5-0.1-1-0.2-1.5-0.2c-4.5-0.2-8.1,3-8.3,6.9c-0.2,4.2,3.2,7.7,7.6,7.8c4.5,0.2,8.1-3,8.3-7.2
		C222,161.9,221.5,160.5,220.7,159.3"/>
	
		<linearGradient id="path183_3_" gradientUnits="userSpaceOnUse" x1="639.706" y1="3928.4392" x2="655.6349" y2="3928.4392" gradientTransform="matrix(1 0 0 1 -569.451 -3761.3318)">
		<stop  offset="0" style="stop-color:#3C5AA6"/>
		<stop  offset="0.9331" style="stop-color:#2B73B9"/>
		<stop  offset="1" style="stop-color:#2A75BB"/>
	</linearGradient>
	<path id="path183_1_" class="st30" d="M85.1,164.1c0,2.4-2.2,4.3-4.8,4.3c-2.7,0-4.8-1.9-4.8-4.3c0-2.2,1.9-4.1,4.4-4.3
		c-0.5-0.1-1-0.1-1.5-0.1c-4.5,0-8,3.3-8,7.3c0,4.2,3.5,7.5,7.9,7.5c4.5,0,8-3.3,8-7.5c0-1.5-0.5-2.8-1.3-4
		C85,163.4,85.1,163.7,85.1,164.1"/>
	<g id="g185" transform="translate(-5.451,-1.686)">
		<g id="g187">
			
				<linearGradient id="path196_1_" gradientUnits="userSpaceOnUse" x1="578.628" y1="3921.9258" x2="844.371" y2="3921.9258" gradientTransform="matrix(1 0 0 1 -569.451 -3761.3318)">
				<stop  offset="0" style="stop-color:#3C5AA6"/>
				<stop  offset="0.9331" style="stop-color:#2B73B9"/>
				<stop  offset="1" style="stop-color:#2A75BB"/>
			</linearGradient>
			<path id="path196" class="st31" d="M254,141.6l-2,8.2l-1.8-9.1l-24.6-5.4l0.2,13.7l3.7,0.8l-0.3,2.5c0,0-0.1,0-0.1-0.1
				c-4.6-2.4-10.3-2.7-15.6-0.6c-1.8,0.7-3.5,1.6-5,2.7l-3.7-23.4h-16.3l-0.4,2.7h-17.2l-2,12l-1.4-1.8c-4.2-5.1-10.2-7.9-16.9-8.1
				l14.6-7.8L155,112.7l-18.4,21.2l3.2,3.9c-2.9,1.2-5.4,2.8-7.5,4.8l-15.8-14l-5.5,10.6l0.2-10.2l-24.7,7.9l0.6,13.2l4.2-1.1
				l0.6,6.7c-4.8-2.2-10.6-2.1-15.9,0.2c-1.6,0.7-3.1,1.5-4.4,2.5c0.9-4.1,0.7-8.1-0.9-11.7c-1.8-4.2-5.1-7.8-9-10
				c-2.8-1.9-6.1-3-9.6-3.4c-8.5-1.5-18.8,0-28.9,4.3c-3.7,1.6-7.2,3.4-10.3,5.4l-3.9,2.5l2.4,4l7.4,12.5c0,0,2.3,3.8,2.3,3.8l4-2
				l0.6-0.3l18.4,41l1.8,3.9l4.1-1.3l9.9-3.2l4.4-1.4l-1.1-4.4l-5.3-20.2c1.5-1.1,2.9-2.3,4.2-3.6c-0.3,2.4-0.1,4.9,0.5,7.2
				c1.4,4.9,4.6,8.8,9.1,10.9c4.8,2.3,10.7,2.3,16.1,0c2.7-1.2,5.2-2.8,7.2-4.9l0.7,8.1l17.4-2.6l0-15.6l36.3,18v-17.4
				c1.5-0.1,2.9-0.4,4.4-0.7c4-1,7.4-2.3,10.5-4.1l-1.5,9.3l19.6,3.1l1.1-7.1l5.1,9.5l3.1-6l1.1,9.9l22.2,3.9l-1.2-7.5
				c3,0.3,6.2-0.1,9.3-1.2c0.7-0.3,1.5-0.6,2.1-1l-0.9,8l14.8,2.1l0.1,6.1l15.4,4.8l20.1-60.5L254,141.6L254,141.6z M167.2,150.6
				l1-1.1l-1.2,7.6l-3.2-2.9L167.2,150.6z M154.2,119.5l5.4,7.3l-15.4,7.6l-1.1-1.6C143.1,132.8,154.2,119.5,154.2,119.5z
				 M52.3,175.8l6.1,23.6l-9.9,3.2L28.1,157c-1.1,0.6-3.2,1.6-5,2.5L15.7,147c2.9-1.9,6.2-3.5,9.6-5c9.6-4.1,18.8-5.3,26.1-4
				c2.6,0.3,5.3,1.1,7.7,2.7c3.3,1.9,5.8,4.5,7.3,7.9C70,156.8,64.1,168.6,52.3,175.8z M98,171.6c-0.1,3.5-1.4,7-3.6,10
				c-2.1,2.9-4.9,5.2-8.3,6.7c-8.6,3.7-17.2,0-19.5-8.2c-2.2-7.9,3-17.3,11.3-20.9c5.3-2.3,10.7-1.7,14.5,0.9c2.4,1.6,4.2,4,5,7
				c0.1,0.3,0.2,0.7,0.2,1C97.9,169.3,98,170.5,98,171.6z M144.9,188.3l-36.1-18l0.1,18.9l-9.3,1.3l-0.7-7.8
				c2.9-4.9,3.9-10.8,2.4-16.1c-0.8-2.9-2.3-5.5-4.4-7.5l-1.3-15.9l-4.2,1.1l-0.2-4l15-4.5l0.9,15.4l11-15.5l10.8,10.3l-15.1,15.9
				l14.2,5.6c1.6,3,4,5.5,7,7.4c2.9,1.8,6.3,2.9,9.8,3.2L144.9,188.3L144.9,188.3L144.9,188.3z M126.2,162.2l-5-1.9l4.7-4.5
				C125.6,157.8,125.7,160,126.2,162.2z M165.4,166.9c-3.5,2.9-7.4,4.7-12.6,6c-1.1,0.3-2.3,0.5-3.3,0.5c-8.3,0.8-15.2-3-17.8-9.1
				c-0.3-0.7-0.6-1.5-0.8-2.3c-1.2-5.2-0.2-9.8,2.4-13.5c0.7-1.1,1.6-2,2.6-2.9c2.4-2.2,5.5-3.7,9-4.6c7.9-1.9,14.8,0.5,19.1,5.7
				l-15,16c1,0.2,2.6-0.1,3.8-0.4c3.6-0.9,5.6-2.8,7.3-4.8l6,5.4l1.8,1.6C167.1,165.4,166.3,166.2,165.4,166.9z M197.3,188.2
				l-3.3-21.6l-4.6,11.9l-6.9-14.9h-0.1l-2.7,17.3l-11.5-2l1.6-9.6c0.4-0.4,0.9-0.8,1.3-1.3l3.7-3.8l-3.6-3.3l3.9-23h11.6l2.9,15.9
				l3.3-18.4h8.3l3.5,22.4c-4.4,5-6.5,11.7-5.1,17.9c1.1,4.8,4.1,8.6,8.3,10.9c0.4,0.2,0.9,0.4,1.3,0.6l0.4,2.9L197.3,188.2
				L197.3,188.2z M226,181.2c-1.3,0.9-2.7,1.7-4.2,2.2c-3,1.1-5.9,1.4-8.6,0.8c-1.8-0.4-3.5-1.1-5-2.1c-2.3-1.7-4-4.1-4.8-7.3
				c-0.9-3.7-0.1-7.7,1.9-11.2c1-1.7,2.3-3.3,3.8-4.7c1.7-1.5,3.7-2.8,5.8-3.6c5.1-1.9,10.1-1.2,13.6,1.3c1.3,0.9,2.4,2.1,3.2,3.5
				c0.6,1.1,1.1,2.3,1.4,3.6c1.1,4.5-0.2,9.3-3,13.1C229.2,178.5,227.7,180,226,181.2z M252,201.6l-8.5-2.5l-0.7-31.4l-4.3,24.2
				l-9.3-1.5l0.7-7c6.1-5.1,9.3-13.2,7.5-20.6c-0.8-3.2-2.4-6.1-4.8-8.2l0.8-8.2l-3.5-0.9l0.2-4.4l16,3.2l5.4,25.5l5.5-22.9
				l12.2,2.7L252,201.6L252,201.6z"/>
		</g>
	</g>
	<g id="flowRoot3115" transform="matrix(0.93943959,0,0,0.93943959,14.793383,6.4307935)">
		<path id="path3084" d="M254.1,209.1v-2.5h-0.9v-0.3h2.3v0.3h-0.9v2.5H254.1z"/>
		<path id="path3086" d="M255.8,209.1v-2.9h0.6l0.7,2c0.1,0.2,0.1,0.3,0.1,0.4c0-0.1,0.1-0.3,0.2-0.5l0.7-2h0.5v2.9h-0.4v-2.4
			l-0.8,2.4H257l-0.8-2.4v2.4H255.8z"/>
	</g>
</g>
<path class="st4" d="M231,26l-2.9,1.1c0,0,1.9,0.9,2.8,1.5L231,26z"/>
<path class="st1" d="M250,46.7c-2.1-1.1-4.1-1.6-6.1-1.3l-1.9,8c1.5-0.5,3.5-1.2,5.8-2.1c2.4-0.9,3.8-1.8,4.2-2.6
	c0.2-0.3,0.1-0.5-0.1-0.7C251.4,47.6,250.7,47.1,250,46.7z"/>
<g>
	<linearGradient id="SVGID_7_" gradientUnits="userSpaceOnUse" x1="173.5663" y1="37.444" x2="179.3239" y2="37.444">
		<stop  offset="0" style="stop-color:#3C5AA6"/>
		<stop  offset="0.9331" style="stop-color:#2B73B9"/>
		<stop  offset="1" style="stop-color:#2A75BB"/>
	</linearGradient>
	<polygon class="st32" points="173.6,41.8 179.3,41.9 175.9,33 	"/>
	<linearGradient id="SVGID_8_" gradientUnits="userSpaceOnUse" x1="211.8171" y1="44.9615" x2="222.0831" y2="44.9615">
		<stop  offset="0" style="stop-color:#3C5AA6"/>
		<stop  offset="0.9331" style="stop-color:#2B73B9"/>
		<stop  offset="1" style="stop-color:#2A75BB"/>
	</linearGradient>
	<path class="st33" d="M221.8,41.9c-0.8-0.5-1.6-0.9-2.5-1.1c-2.5-0.8-4.9-0.9-7-0.2l-0.5,9.3c1.6-0.8,3.6-2,6.1-3.5
		s3.8-2.7,4.1-3.7C222.1,42.3,222.1,42.1,221.8,41.9z"/>
	<linearGradient id="SVGID_9_" gradientUnits="userSpaceOnUse" x1="243.7104" y1="48.3858" x2="253.8636" y2="48.3858">
		<stop  offset="0" style="stop-color:#3C5AA6"/>
		<stop  offset="0.9331" style="stop-color:#2B73B9"/>
		<stop  offset="1" style="stop-color:#2A75BB"/>
	</linearGradient>
	<path class="st34" d="M251.7,45.7c-2.1-1.1-4.1-1.6-6.1-1.3l-1.9,8c1.5-0.5,3.5-1.2,5.8-2.1c2.4-0.9,3.8-1.8,4.2-2.6
		c0.2-0.3,0.1-0.5-0.1-0.7C253,46.5,252.4,46.1,251.7,45.7z"/>
	<linearGradient id="SVGID_10_" gradientUnits="userSpaceOnUse" x1="3.726" y1="47.8844" x2="268.293" y2="47.8844">
		<stop  offset="0" style="stop-color:#3C5AA6"/>
		<stop  offset="0.9331" style="stop-color:#2B73B9"/>
		<stop  offset="1" style="stop-color:#2A75BB"/>
	</linearGradient>
	<path class="st35" d="M267.8,43.4c-0.4-1.5-1.1-2.9-2-4.2c-0.8-1.2-1.9-2.3-3.1-3.2c-0.5-0.4-1.6-1.1-4.8-2.9c-0.6-0.4-1.3-0.7-2-1
		c-0.9-0.4-1.8-0.8-2.7-1.1c-1.9-0.7-4-1.3-6.2-1.8c-2.2-0.5-4.3-1-6.3-1.4c-2-0.4-4.1-0.8-6.4-1.2L231,26l-0.1,2.6
		c-0.4-0.3-0.8-0.5-1.3-0.8c-0.6-0.3-1.9-1-5.9-2.3c-0.8-0.3-1.6-0.5-2.4-0.7c-1.1-0.3-2.1-0.5-3.2-0.7c-2.3-0.4-4.7-0.6-7.2-0.8
		c-2.5-0.2-4.9-0.3-7.2-0.3c-2.3,0-4.7,0-7.3,0l-3.9,0l1.1,20.1l-20.3-36l-9.5,26.3l-0.4-0.6l-1.4-1.8c-4.2-5.1-10.2-7.9-16.9-8.1
		l14.6-7.8L149.5,0l-18.4,21.2l3.2,3.9c-2.9,1.2-5.4,2.8-7.5,4.8l-15.8-14l-5.5,10.6l0.2-10.2l-24.7,7.9l0.6,13.2l4.2-1.1l0.6,6.7
		c-4.8-2.2-10.6-2.1-15.9,0.2c-1.6,0.7-3.1,1.5-4.4,2.5c0.9-4.1,0.7-8.1-0.9-11.7c-1.8-4.2-5.1-7.8-9-10c-2.8-1.9-6.1-3-9.6-3.4
		c-8.5-1.5-18.8,0-28.9,4.3c-3.7,1.6-7.2,3.4-10.3,5.4l-3.9,2.5l2.4,4l7.4,12.5c0,0,2.3,3.8,2.3,3.8l4-2l0.6-0.3l18.4,41l1.8,3.9
		l4.1-1.3l9.9-3.2l4.4-1.4l-1.1-4.4l-5.3-20.2c1.5-1.1,2.9-2.3,4.2-3.6c-0.3,2.4-0.1,4.9,0.5,7.2c1.4,4.9,4.6,8.8,9.1,10.9
		c4.8,2.3,10.7,2.3,16.1,0c2.7-1.2,5.2-2.8,7.2-4.9l0.7,8.1l17.4-2.6l0-15.6l36.3,18V65.4c1.5-0.1,2.9-0.4,4.4-0.7
		c1.7-0.4,3.2-0.9,4.7-1.4l-4.7,13.2l21.2-3.6l7.1-21.4l1.3,0l14.6,25.3l5.4-1.2l0.2,9.8l15.9-5l0.9-20.1c1.4-0.6,3.1-1.4,5.2-2.5
		c3.3-1.6,6.7-3.7,10.2-6.1c0.3-0.2,0.5-0.4,0.8-0.6l-4.9,30.3l14.7-1.9l3.9-17.4c1.3-0.3,2.9-0.8,4.9-1.4c3.1-0.9,6.5-2.2,9.9-3.8
		c4-1.8,6.5-3.9,7.8-6.2c0.5-0.8,0.7-1.8,0.8-2.7C268.4,46.5,268.2,44.9,267.8,43.4z M161.8,37.9l0.8-0.8l-2.2,6.2l-2-1.8
		L161.8,37.9z M148.8,6.7l5.4,7.3l-15.4,7.6l-1.1-1.6L148.8,6.7z M46.9,63.1L53,86.7l-9.9,3.2L22.7,44.3c-1.1,0.6-3.2,1.6-5,2.5
		l-7.4-12.5c2.9-1.9,6.2-3.5,9.6-5c9.6-4.1,18.8-5.3,26.1-4c2.6,0.3,5.3,1.1,7.7,2.7c3.3,1.9,5.8,4.5,7.3,7.9
		C64.5,44.1,58.6,55.9,46.9,63.1z M89,68.9c-2.1,2.9-4.9,5.2-8.3,6.7c-8.6,3.7-17.2,0-19.5-8.2c-2.2-7.9,3-17.3,11.3-20.9
		c5.3-2.3,10.7-1.7,14.5,0.9c2.4,1.6,4.2,4,5,7c0.1,0.3,0.2,0.7,0.2,1c0.2,1.2,0.3,2.3,0.3,3.5C92.4,62.4,91.1,66,89,68.9z
		 M139.5,75.6l-36.1-18l0.1,18.9l-9.3,1.3l-0.6-7.8c2.9-4.9,3.9-10.8,2.4-16.1c-0.8-2.9-2.3-5.5-4.4-7.5l-1.3-15.9L86,31.5l-0.2-4
		l15-4.5l0.9,15.4l11-15.5l10.8,10.3l-15.1,15.9l14.2,5.6c1.6,3,4,5.5,7,7.4c2.9,1.8,6.3,2.9,9.8,3.2L139.5,75.6L139.5,75.6z
		 M120.7,49.5l-5-1.9l4.7-4.5C120.2,45.1,120.3,47.2,120.7,49.5z M147.4,60.2c-1.1,0.3-2.3,0.5-3.3,0.5c-8.3,0.8-15.2-3-17.8-9.1
		c-0.3-0.7-0.6-1.5-0.8-2.3c-1.2-5.2-0.2-9.8,2.4-13.5c0.7-1.1,1.6-2,2.6-2.9c2.4-2.2,5.5-3.7,9-4.6c7.9-1.9,14.8,0.5,19.1,5.7
		l-15,16c1,0.2,2.6-0.1,3.8-0.4c3.6-0.9,5.6-2.8,7.3-4.8l6,5.4l1.8,1.6c-0.8,0.8-1.6,1.6-2.5,2.3C156.5,57,152.6,58.9,147.4,60.2z
		 M194.5,72.4l-14.3-24.7l-6.4-0.2l-7.3,21.9l-12.3,2.1l3.8-10.5c0.3-0.2,0.6-0.3,0.8-0.5c2.7-1.7,5.7-4.5,7.8-6.5l2.6-2.6l-3.6-3.3
		l0,0l-2.3-2l10.6-29.6l30.3,53.7L194.5,72.4z M194.8,45.4l2.7-0.9l0.1,5.9L194.8,45.4z M228.4,49c-3.4,2.4-6.7,4.3-9.8,5.9
		c-3.1,1.5-5.5,2.6-7,3.3L210.8,78l-9.3,2.9l-0.1-6l9-2l-9.3-16.4l-0.3-17.6c0,0-0.3,0.1-0.7,0.4c-0.4,0.3-1,0.6-1.7,1
		c-0.7,0.4-1.2,0.7-1.3,0.7c-0.1,0-0.1-0.5-0.1-1.4c0-0.9-0.1-2.2-0.1-3.8c0-1.6-0.1-3.5-0.2-5.5c-0.1-2-0.1-3.3-0.2-3.8
		c2.6,0,5,0,7.2,0s4.6,0.1,7.1,0.3c2.5,0.2,4.8,0.4,7,0.8c1.7,0.3,3.3,0.7,5,1.2c2.8,0.9,4.6,1.6,5.4,2c1.2,0.7,2.3,1.5,3.3,2.4
		s1.8,2,2.4,3.3c0.6,1.2,1,2.6,1.1,4c0.1,0.6,0,1.2-0.2,1.8C233.9,44.4,231.8,46.6,228.4,49z M265.3,47.9c0,0.5-0.2,1-0.4,1.5
		c-1,1.8-3.1,3.4-6.4,4.9c-3.3,1.5-6.5,2.7-9.5,3.6c-3,0.9-5.2,1.5-6.6,1.8l-3.9,17.2l-8.6,1.1l4.9-29.8c0,0,0,0,0,0
		c0.4-0.4,0.7-0.8,1-1.2c0,0,0,0,0.1-0.1c0.3-0.4,0.5-0.7,0.8-1.1c0-0.1,0.1-0.1,0.1-0.2c0.2-0.3,0.4-0.7,0.6-1
		c0-0.1,0.1-0.1,0.1-0.2c0.2-0.4,0.4-0.8,0.5-1.2c0.3-1,0.5-2.1,0.4-3.2c-0.2-1.8-0.7-3.6-1.5-5.2c-0.2-0.4-0.4-0.8-0.6-1.1
		c-0.2-0.3-0.4-0.7-0.7-1c0,0,0,0,0,0c-0.5-0.7-1-1.3-1.7-1.9c0.1-0.6,0.1-1.1,0.1-1.3c2.2,0.4,4.4,0.8,6.3,1.2c2,0.4,4,0.8,6.1,1.4
		c2.1,0.5,4.1,1.1,6,1.8c1.4,0.5,2.8,1.1,4.2,1.9c2.3,1.2,3.7,2.1,4.4,2.6c1,0.8,1.8,1.7,2.5,2.6c0.7,1,1.2,2,1.6,3.2
		C265.2,45.3,265.4,46.6,265.3,47.9z"/>
</g>
</svg>
